<svg xmlns="http://www.w3.org/2000/svg" viewBox="0 0 128 128" role="img" aria-labelledby="title">
  <title id="title">Fussball</title>
  <defs>
    <radialGradient id="ball" cx="35%" cy="28%" r="75%">
      <stop offset="0%" stop-color="#ffffff"/>
      <stop offset="78%" stop-color="#f3f3f3"/>
      <stop offset="100%" stop-color="#d9d9d9"/>
    </radialGradient>
    <filter id="shadow" x="-20%" y="-20%" width="140%" height="140%">
      <feDropShadow dx="0" dy="5" stdDeviation="4" flood-color="#000000" flood-opacity="0.22"/>
    </filter>
  </defs>

  <circle cx="64" cy="64" r="56" fill="url(#ball)" stroke="#cfcfcf" stroke-width="2" filter="url(#shadow)"/>

  <polygon points="64,40 79,50 73,68 55,68 49,50" fill="#1f1f1f"/>
  <polygon points="49,50 33,59 32,77 47,87 55,68" fill="#1f1f1f"/>
  <polygon points="79,50 95,59 96,77 81,87 73,68" fill="#1f1f1f"/>
  <polygon points="47,87 58,103 70,103 81,87 64,76" fill="#1f1f1f"/>

  <g fill="none" stroke="#7d7d7d" stroke-width="1.8" stroke-linecap="round" stroke-linejoin="round">
    <path d="M64 40 54 24 39 31 33 59 19 67 23 86 36 96 44 110 64 118 84 110 92 96 105 86 109 67 95 59 89 31 74 24Z"/>
    <path d="M49 50 39 31"/>
    <path d="M79 50 89 31"/>
    <path d="M33 59 19 67"/>
    <path d="M95 59 109 67"/>
    <path d="M47 87 36 96"/>
    <path d="M81 87 92 96"/>
    <path d="M58 103 64 118 70 103"/>
  </g>

  <ellipse cx="46" cy="39" rx="18" ry="9" fill="#ffffff" opacity="0.35" transform="rotate(-20 46 39)"/>
</svg>
