<svg xmlns="http://www.w3.org/2000/svg" viewBox="0 0 160 160" role="img" aria-labelledby="title">
  <title id="title">Fussball</title>
  <defs>
    <radialGradient id="ballBody" cx="38%" cy="30%" r="70%">
      <stop offset="0%" stop-color="#ffffff"/>
      <stop offset="70%" stop-color="#f1f1f1"/>
      <stop offset="100%" stop-color="#d2d2d2"/>
    </radialGradient>
    <radialGradient id="panelDark" cx="38%" cy="30%" r="75%">
      <stop offset="0%" stop-color="#696969"/>
      <stop offset="100%" stop-color="#2a2a2a"/>
    </radialGradient>
    <filter id="shadow" x="-20%" y="-20%" width="140%" height="140%">
      <feDropShadow dx="0" dy="6" stdDeviation="6" flood-color="#000000" flood-opacity="0.25"/>
    </filter>
  </defs>

  <circle cx="80" cy="80" r="72" fill="url(#ballBody)" stroke="#c9c9c9" stroke-width="2" filter="url(#shadow)"/>

  <polygon points="80,46 101,60 93,85 67,85 59,60" fill="url(#panelDark)"/>
  <polygon points="59,60 37,72 36,95 58,109 67,85" fill="url(#panelDark)"/>
  <polygon points="101,60 123,72 124,95 102,109 93,85" fill="url(#panelDark)"/>
  <polygon points="58,109 72,131 88,131 102,109 80,94" fill="url(#panelDark)"/>
  <polygon points="46,38 68,28 80,46 59,60 43,54" fill="#fafafa" stroke="#bcbcbc" stroke-width="1.5"/>
  <polygon points="114,38 92,28 80,46 101,60 117,54" fill="#fafafa" stroke="#bcbcbc" stroke-width="1.5"/>
  <polygon points="27,67 21,89 36,95 37,72" fill="#fafafa" stroke="#bcbcbc" stroke-width="1.5"/>
  <polygon points="133,67 139,89 124,95 123,72" fill="#fafafa" stroke="#bcbcbc" stroke-width="1.5"/>
  <polygon points="44,121 61,137 72,131 58,109" fill="#fafafa" stroke="#bcbcbc" stroke-width="1.5"/>
  <polygon points="116,121 99,137 88,131 102,109" fill="#fafafa" stroke="#bcbcbc" stroke-width="1.5"/>

  <g fill="none" stroke="#7a7a7a" stroke-width="2" stroke-linecap="round" stroke-linejoin="round" opacity="0.6">
    <path d="M80 46 L92 28"/>
    <path d="M80 46 L68 28"/>
    <path d="M59 60 L43 54"/>
    <path d="M101 60 L117 54"/>
    <path d="M67 85 L58 109"/>
    <path d="M93 85 L102 109"/>
    <path d="M58 109 L44 121"/>
    <path d="M102 109 L116 121"/>
    <path d="M37 72 L27 67"/>
    <path d="M123 72 L133 67"/>
  </g>

  <ellipse cx="63" cy="52" rx="34" ry="16" fill="#ffffff" opacity="0.28" transform="rotate(-20 63 52)"/>
</svg>
