<svg xmlns="http://www.w3.org/2000/svg" xmlns:xlink="http://www.w3.org/1999/xlink" xmlns:inkscape="http://www.inkscape.org/namespaces/inkscape" version="1.1" width="202.676" height="227.62" viewBox="0 0 202.676 227.62">
<defs>
<clipPath id="clip_1">
<path transform="matrix(1,0,0,-1,0,227.62)" d="M0 227.62H202.676V0H0Z"/>
</clipPath>
</defs>
<g>
<g inkscape:groupmode="layer" inkscape:label="Schrift">
</g>
<g inkscape:groupmode="layer" inkscape:label="Ebene 1">
<g clip-path="url(#clip_1)">
<path transform="matrix(1,0,0,-1,.4653,113.49539)" d="M0 0C0 0 24.61 6.678 25.498 28.068 25.498 48.125 17.579 54.86 6.143 60.319 9.718 76.009 16.801 97.547 26.521 112.868 31.576 111.898 67.178 102.506 102.407 102.506 137.637 102.506 157.569 108.594 175.136 113.065 189.84 90.245 195.465 59.754 195.465 59.754 195.465 59.754 175.482 51.216 176.296 28.568 177.11 5.921 201.719-.148 201.719-.148L199.448-6.533C199.448-6.533 195.345-16.791 194.025-19.72 178.397-54.374 152.644-84.031 120.085-103.873 116.394-106.123 101.014-113.707 101.014-113.707 101.014-113.707 90.328-108.448 87.226-106.678 80.231-102.686 55.287-90.22 32.047-60.467 8.807-30.715 0 0 0 0" fill="#ffffff"/>
<path transform="matrix(1,0,0,-1,.4653,113.49539)" stroke-width=".75" stroke-linecap="butt" stroke-miterlimit="10" stroke-linejoin="miter" fill="none" stroke="#231f20" d="M0 0C0 0 24.61 6.678 25.498 28.068 25.498 48.125 17.579 54.86 6.143 60.319 9.718 76.009 16.801 97.547 26.521 112.868 31.576 111.898 67.178 102.506 102.407 102.506 137.637 102.506 157.569 108.594 175.136 113.065 189.84 90.245 195.465 59.754 195.465 59.754 195.465 59.754 175.482 51.216 176.296 28.568 177.11 5.921 201.719-.148 201.719-.148L199.448-6.533C199.448-6.533 195.345-16.791 194.025-19.72 178.397-54.374 152.644-84.031 120.085-103.873 116.394-106.123 101.014-113.707 101.014-113.707 101.014-113.707 90.328-108.448 87.226-106.678 80.231-102.686 55.287-90.22 32.047-60.467 8.807-30.715 0 0 0 0Z"/>
<path transform="matrix(1,0,0,-1,184.7796,112.716098)" d="M0 0 9.482-5.415 9.05-6.599C9.05-6.599 5.177-16.315 3.93-19.089-10.824-51.912-35.136-80.001-65.874-98.795-69.358-100.926-83.399-108.128-83.399-108.128-83.399-108.128-93.966-103.128-96.895-101.451-113.042-92.207-128.273-79.595-140.986-66.102ZM-176.392-5.347C-147.99 6.869-144.281 47.911-171.856 63.367-168.481 78.227-162.744 92.324-156.003 105.909-147.769 104.322-139.617 102.131-131.344 100.697-91.14 93.731-50.823 95.835-11.375 105.908-4.66 92.952 .855 78.959 4.334 64.743L-171.836-17.216Z" fill="#3360ac"/>
<path transform="matrix(1,0,0,-1,184.7796,112.716098)" stroke-width=".75" stroke-linecap="butt" stroke-miterlimit="10" stroke-linejoin="miter" fill="none" stroke="#000000" d="M0 0 9.482-5.415 9.05-6.599C9.05-6.599 5.177-16.315 3.93-19.089-10.824-51.912-35.136-80.001-65.874-98.795-69.358-100.926-83.399-108.128-83.399-108.128-83.399-108.128-93.966-103.128-96.895-101.451-113.042-92.207-128.273-79.595-140.986-66.102L0 0ZM-176.392-5.347C-147.99 6.869-144.281 47.911-171.856 63.367-168.481 78.227-162.744 92.324-156.003 105.909-147.769 104.322-139.617 102.131-131.344 100.697-91.14 93.731-50.823 95.835-11.375 105.908-4.66 92.952 .855 78.959 4.334 64.743L-171.836-17.216-176.392-5.347Z"/>
<path transform="matrix(1,0,0,-1,40.4951,24.900193)" d="M0 0C5.586-4.509 16.643-2.298 23.011-.305 25.891 .596 25.415 .48 26.036 3.927 24.883 3.517 23.478 3.562 22.406 3.325 14.954 1.678 7.674 .356 0 0" fill="#ffffff"/>
<path transform="matrix(1,0,0,-1,99.2388,68.767)" d="M0 0C-7.759-.132-15.554 .178-23.317 0-23.545-.005-24.008-.855-24.816-.353-28.006 4.341-31.196 9.397-32.096 15.122-28.617 14.827-15.746 17.038-13.618 15.134-13.147 14.713-10.815 10.199-9.672 8.791-8.45 7.284-3.98 2.692-2.431 2.09-.698 1.417 .459 2.693 0 0M-1.817-4.235H-20.894C-21.845-4.235-24.413-2.975-26.042-3.624-23.779-1.414-18.229-2.554-14.813-2.445-10.691-2.313-5.11-.342-1.817-4.235M-13.324-9.075-20.848-11.444-21.803-9.075ZM-23.017-7.258-23.019-5.447C-17.868-4.342-13.528-6.233-8.482-6.661-8.318-7.57-9.412-7.396-10.003-7.514-14.502-8.411-18.506-6.962-23.017-7.258M-26.036-6.05C-24.836-6.272-23.128-10.42-23.623-10.887-27.427-11.691-25.746-8.941-26.036-6.05M-29.068-1.819-27.254-1.821-28.459-10.282C-28.495-7.436-28.176-4.563-29.068-1.819M-9.919-10.964C-11.386-11.67-12.6-12.805-14.12-13.423-24.143-17.502-36.973-13.11-47.508-13.881L-50.87-11.795C-42.118-11.936-33.444-13.978-24.536-13.303-16.446-12.689-9.021-9.456-1.817-6.056-3.459-9.274-7.008-9.565-9.919-10.964M-1.82-16.944H-3.631C-3.388-14.811-4.415-11.982-2.722-10.288-1.676-12.325-1.749-14.711-1.82-16.944M-13.515-17.052C-16.416-18.165-22.021-19.146-25.142-19.353-28.406-19.57-38.409-19.294-41.358-18.628-43.074-18.24-44.215-16.545-45.42-15.425-35.498-15.766-25.108-18.684-15.249-15.925-13.665-15.482-7.789-11.629-7.271-12.104-6.14-13.139-12.725-16.749-13.515-17.052M-17.903-22.954C-21.716-23.552-31.401-23.16-35.128-22.084-35.713-21.915-37.578-21.351-37.549-20.571-32.407-20.177-26.548-21.105-21.5-20.571-17.151-20.11-13.15-17.147-9.088-17.24-11.025-19.5-14.926-22.486-17.903-22.954M-37.546-11.489C-37.433-10.336-32.914-10.131-32.707-10.289-32.224-12.605-36.224-11.099-37.546-11.489M-47.236-10.279-40.003-7.532-32.099-6.661C-35.346-10.236-42.58-10.241-47.236-10.279M-29.679-12.097C-31.884-12.414-32.029-8.185-30.582-7.263ZM-55.719-9.07C-55.906-8.063-55.494-7.8-54.668-7.402-52.438-6.33-43.347-4.951-40.578-4.84-39.319-3.691-37.235-4.411-35.572-4.092-33.56-3.707-30.293-1.11-30.284-4.231-32.676-4.71-35.171-4.919-37.549-5.445-40.718-6.146-43.961-6.841-47.094-7.709-50.758-8.724-51.944-10.846-55.719-9.07M-35.732 43.561C-42.146 41.514-53.157 39.358-58.744 43.867-51.069 44.222-43.789 45.545-36.338 47.191-35.265 47.429-33.861 47.384-32.707 47.793-33.329 44.347-32.858 44.479-35.732 43.561M-25.74 36.906H0C.42 34.673-3.303 36.06-5.019 35.567-8.529 34.558-15.029 25.254-14.535 21.176H-32.704C-34.126 24.23-28.295 36.906-25.74 36.906M-40.569 26.915C-40.715 25.718-40.081 20.571-41.486 20.571H-54.507C-54.768 23.082-54.161 25.319-53.452 27.684-52.868 29.63-50.265 33.834-50.249 34.764-50.242 35.216-52.906 35.669-53.309 36.593-54.807 39.067-52.651 36.906-52.387 36.906H-37.549C-38.994 33.699-40.137 30.439-40.569 26.915M-55.113-.605C-54.673 1.158-50.586 .802-50.287 2.157-50.136 2.842-55.282 12.21-54.505 14.517-49.808 14.141-45.233 15.055-40.577 15.127L-38.155-.605ZM-3.007 3.954C-4.159 4.653-8.385 9.091-9.335 10.338-14.731 17.425-14.727 24.614-8.415 31.095-8.003 31.518-4.667 34.289-4.419 34.363-.661 35.479 1.979 32.086 1.813 38.719 1.156 38.952 .489 38.116 .303 38.116H-29.676C-30.324 40.379-28.371 49.609-29.744 50.752-29.941 50.917-32.604 50.933-32.707 50.826-32.855 50.671-32.67 49.732-32.639 49.065-32.625 48.77-32.638 48.522-32.728 48.427-32.854 48.294-35.518 47.985-36.338 47.796-43.629 46.119-51.036 45.765-58.427 44.745-59.292 44.626-60.213 45.315-59.952 43.872-57.677 38.292-39.867 40.838-35.127 42.956-34.727 42.863-34.046 43.309-33.883 42.602-33.734 41.956-33.816 41.082-33.891 40.202-33.953 39.466-34.01 38.725-33.912 38.113L-56.321 38.718C-57.009 36.117-52.376 34.871-52.084 34.473-51.842 34.145-54.656 28.445-55.067 26.878-57.382 18.053-56.046 10.837-52.069 2.742-54.488 1.382-57.265 1.895-56.93-1.815H-33.916C-33.876-2.7-36.101-2.737-36.818-2.848-39.164-3.209-58.055-6.171-58.126-7.559-52.054-15.449-41.02-22.716-31.115-24.125-23.845-25.16-12.986-25.503-8.43-18.472-7.352-16.808-8.743-15.646-8.433-15.206-8.272-14.976-5.423-13.618-5.145-12.103-3.979-13.162-5.724-18.494-5.448-18.752L-.606-18.756V-9.075C-.606-9.019-1.586-9.199-1.731-9.012-2.48-8.044 1.243-5.944 1.015-3.914 .843-2.377-2.011-2.486-2.42-1.216L1.214-1.213C1.987 3.892-.186 2.245-3.007 3.954"/>
<path transform="matrix(1,0,0,-1,67.1425,53.6447)" d="M0 0C.9-5.725 4.091-10.781 7.28-15.476 8.088-15.977 8.551-15.127 8.779-15.122 16.543-14.945 24.337-15.254 32.096-15.122 32.556-12.429 31.398-13.706 29.665-13.032 28.116-12.43 23.646-7.838 22.424-6.332 21.281-4.924 18.949-.41 18.478 .012 16.35 1.916 3.479-.295 0 0" fill="#f5f6f5"/>
<path transform="matrix(1,0,0,-1,84.7035,47.591295)" d="M0 0C-.494 4.078 6.006 13.383 9.517 14.391 11.232 14.884 14.956 13.498 14.535 15.73H-11.204C-13.76 15.73-19.591 3.054-18.169 0Z" fill="#f4f5f4"/>
<path transform="matrix(1,0,0,-1,45.9297,32.173799)" d="M0 0C.403-.924 3.067-1.377 3.06-1.83 3.044-2.759 .441-6.963-.143-8.909-.852-11.274-1.459-13.511-1.198-16.023H11.823C13.228-16.023 12.594-10.876 12.74-9.679 13.172-6.154 14.315-2.894 15.76 .313H.922C.658 .313-1.498 2.474 0 0" fill="#f4f5f4"/>
<path transform="matrix(1,0,0,-1,44.7336,54.2498)" d="M0 0C-.777-2.307 4.369-11.676 4.218-12.36 3.919-13.715-.168-13.359-.608-15.122H16.35L13.929 .61C9.272 .538 4.697-.376 0 0" fill="#f4f5f4"/>
<path transform="matrix(1,0,0,-1,74.0968,88.119998)" d="M0 0C3.121 .207 8.725 1.188 11.627 2.301 12.417 2.604 19.002 6.214 17.871 7.249 17.353 7.724 11.477 3.871 9.893 3.428 .034 .669-10.356 3.587-20.278 3.928-19.073 2.808-17.932 1.113-16.216 .725-13.268 .059-3.264-.217 0 0" fill="#ececec"/>
<path transform="matrix(1,0,0,-1,85.1191,82.190097)" d="M0 0C1.519 .618 2.733 1.753 4.201 2.459 7.111 3.858 10.661 4.149 12.302 7.367 5.099 3.967-2.327 .734-10.416 .12-19.325-.555-27.999 1.487-36.751 1.628L-33.388-.458C-22.853 .313-10.024-4.079 0 0" fill="#ebeaeb"/>
<path transform="matrix(1,0,0,-1,81.3353,91.72049)" d="M0 0C2.977 .467 6.878 3.453 8.816 5.713 4.754 5.807 .753 2.844-3.597 2.383-8.645 1.848-14.504 2.777-19.646 2.383-19.675 1.603-17.81 1.039-17.225 .87-13.497-.206-3.813-.598 0 0" fill="#ededed"/>
<path transform="matrix(1,0,0,-1,84.4256,71.21199)" d="M0 0C-3.416-.109-8.966 1.031-11.229-1.179-9.6-.53-7.032-1.79-6.081-1.79H12.996C9.703 2.103 4.122 .132 0 0" fill="#e2e1e2"/>
<path transform="matrix(1,0,0,-1,59.2357,76.2986)" d="M0 0-7.233-2.748C-2.577-2.71 4.657-2.705 7.904 .87Z" fill="#e1e0e1"/>
<path transform="matrix(1,0,0,-1,89.2354,76.2811)" d="M0 0C.591 .118 1.685-.056 1.521 .853-3.525 1.281-7.865 3.172-13.016 2.067L-13.014 .257C-8.502 .552-4.499-.897 0 0" fill="#e0dee0"/>
<path transform="matrix(1,0,0,-1,78.3911,80.21089)" d="M0 0 7.524 2.369H-.955Z" fill="#cfcfd0"/>
<path transform="matrix(1,0,0,-1,63.6666,72.85939)" d="M0 0C-1.663-.319-3.747 .402-5.005-.748-7.775-.858-16.866-2.237-19.096-3.31-19.922-3.707-20.334-3.971-20.147-4.978-16.372-6.753-15.186-4.632-11.521-3.616-8.389-2.748-5.146-2.054-1.977-1.353 .402-.826 2.896-.617 5.288-.139 5.28 2.982 2.012 .386 0 0" fill="#ffffff"/>
<path transform="matrix(1,0,0,-1,95.6074,85.7108)" d="M0 0H1.812C1.882 2.232 1.955 4.619 .909 6.655-.784 4.961 .244 2.133 0 0" fill="#efedee"/>
<path transform="matrix(1,0,0,-1,75.6159,79.65419)" d="M0 0C.495 .467-1.214 4.616-2.413 4.837-2.123 1.947-3.804-.804 0 0" fill="#d3d2d3"/>
<path transform="matrix(1,0,0,-1,69.5594,80.8642)" d="M0 0-.902 4.834C-2.35 3.912-2.204-.317 0 0" fill="#d9d9da"/>
<path transform="matrix(1,0,0,-1,71.9849,70.58789)" d="M0 0-1.815 .002C-.923-2.742-1.241-5.615-1.205-8.461Z" fill="#e2e1e2"/>
<path transform="matrix(1,0,0,-1,61.6924,80.256198)" d="M0 0C1.323 .39 5.322-1.116 4.839 1.201 4.632 1.358 .114 1.154 0 0" fill="#bfbfc2"/>
<path transform="matrix(1,0,0,-1,81.8596,127.5721)" d="M0 0-7.365 15.744-12.988 13.114-14.488 16.32 .571 23.364 2.071 20.159-3.539 17.534 3.826 1.79Z" fill="#231f20"/>
<path transform="matrix(1,0,0,-1,89.9109,116.2905)" d="M0 0 3.553 2.103C4.362 .959 5.246 .254 6.205-.012 7.164-.277 8.226-.138 9.389 .406 10.621 .983 11.428 1.678 11.809 2.491 12.19 3.305 12.217 4.061 11.89 4.759 11.681 5.207 11.371 5.527 10.961 5.718 10.551 5.91 9.964 5.969 9.2 5.895 8.68 5.841 7.529 5.639 5.75 5.289 3.461 4.838 1.73 4.79 .556 5.144-1.096 5.643-2.272 6.641-2.973 8.141-3.425 9.106-3.574 10.137-3.419 11.233-3.265 12.329-2.776 13.338-1.952 14.259-1.128 15.18 .013 15.982 1.469 16.663 3.847 17.776 5.882 18.092 7.572 17.611 9.262 17.131 10.544 16.035 11.419 14.322L7.671 12.364C7.052 13.261 6.373 13.797 5.635 13.972 4.897 14.146 3.989 13.982 2.912 13.478 1.8 12.958 1.037 12.322 .621 11.571 .353 11.089 .334 10.602 .564 10.111 .773 9.663 1.142 9.368 1.671 9.226 2.343 9.047 3.712 9.173 5.779 9.604 7.846 10.036 9.436 10.225 10.547 10.173 11.659 10.12 12.657 9.805 13.542 9.226 14.428 8.648 15.15 7.76 15.711 6.562 16.219 5.476 16.393 4.318 16.233 3.088 16.073 1.858 15.549 .754 14.662-.223 13.775-1.2 12.508-2.074 10.862-2.844 8.466-3.964 6.368-4.271 4.566-3.765 2.763-3.258 1.242-2.003 0 0" fill="#231f20"/>
<path transform="matrix(1,0,0,-1,116.2567,111.480998)" d="M0 0-15.638 15.781-11.489 17.723-.132 5.941-2.053 22.137 2.006 24.036 4.085 1.911Z" fill="#231f20"/>
<path transform="matrix(1,0,0,-1,48.7546,170.8633)" d="M0 0-8.865 18.95-5.039 20.74-1.55 13.281 5.948 16.789 2.459 24.247 6.285 26.037 15.15 7.087 11.324 5.297 7.447 13.583-.05 10.076 3.826 1.79Z" fill="#231f20"/>
<path transform="matrix(1,0,0,-1,72.3248,151.8019)" d="M0 0C-.393-.373-1.043-.903-1.95-1.59-2.858-2.277-3.418-2.797-3.632-3.148-3.949-3.706-3.986-4.244-3.744-4.761-3.506-5.269-3.111-5.62-2.559-5.813-2.006-6.006-1.437-5.966-.851-5.692-.196-5.385 .328-4.878 .721-4.169 1.007-3.636 1.109-3.1 1.025-2.561 .975-2.207 .746-1.594 .339-.724ZM-6.239 .674-9.813-.274C-10.064 1.227-9.886 2.507-9.279 3.568-8.673 4.629-7.477 5.577-5.694 6.412-4.073 7.169-2.777 7.542-1.805 7.529-.833 7.517-.047 7.291 .552 6.852 1.152 6.413 1.82 5.405 2.558 3.828L4.502-.43C5.067-1.637 5.541-2.499 5.926-3.018 6.31-3.537 6.815-4.049 7.44-4.555L3.847-6.236C3.639-6.039 3.355-5.736 2.996-5.326 2.835-5.139 2.725-5.017 2.667-4.96 2.329-5.853 1.877-6.616 1.311-7.248 .746-7.881 .062-8.384-.739-8.759-2.153-9.42-3.446-9.558-4.619-9.172-5.792-8.786-6.653-8.007-7.201-6.835-7.564-6.059-7.702-5.281-7.616-4.5-7.529-3.719-7.228-3.011-6.711-2.375-6.195-1.74-5.364-1.007-4.218-.177-2.67 .936-1.633 1.783-1.107 2.366L-1.276 2.727C-1.602 3.425-2.008 3.843-2.491 3.979-2.975 4.115-3.695 3.959-4.652 3.511-5.298 3.209-5.743 2.846-5.986 2.423-6.229 1.999-6.313 1.416-6.239 .674" fill="#231f20"/>
<path transform="matrix(1,0,0,-1,82.557,155.0503)" d="M0 0-6.422 13.728-2.79 15.427 3.632 1.699ZM-7.293 15.589-8.865 18.95-5.233 20.649-3.66 17.288Z" fill="#231f20"/>
<path transform="matrix(1,0,0,-1,102.399,145.7681)" d="M0 0-3.632-1.699-6.91 5.307C-7.603 6.789-8.129 7.712-8.488 8.074-8.847 8.437-9.257 8.657-9.719 8.735-10.181 8.813-10.657 8.737-11.148 8.507-11.778 8.213-12.261 7.777-12.6 7.198-12.939 6.62-13.067 6.003-12.987 5.347-12.906 4.692-12.507 3.597-11.789 2.063L-8.88-4.154-12.513-5.854-18.935 7.874-15.561 9.453-14.618 7.436C-14.145 9.548-13 11.029-11.182 11.879-10.38 12.254-9.58 12.452-8.782 12.474-7.983 12.496-7.309 12.362-6.759 12.073-6.209 11.785-5.734 11.387-5.334 10.881-4.935 10.374-4.487 9.591-3.991 8.531Z" fill="#231f20"/>
<path transform="matrix(1,0,0,-1,102.9711,140.72669)" d="M0 0 3.385 2.261C3.871 1.627 4.436 1.238 5.082 1.093 5.727 .949 6.476 1.076 7.329 1.475 8.269 1.914 8.895 2.417 9.207 2.984 9.413 3.374 9.422 3.772 9.232 4.177 9.103 4.453 8.91 4.641 8.653 4.741 8.392 4.829 7.912 4.799 7.214 4.651 3.982 3.927 1.849 3.648 .815 3.816-.618 4.049-1.643 4.825-2.259 6.143-2.816 7.332-2.814 8.552-2.253 9.801-1.693 11.051-.426 12.137 1.547 13.06 3.426 13.939 4.965 14.286 6.165 14.102 7.365 13.917 8.417 13.307 9.322 12.27L6.193 10.034C5.796 10.5 5.327 10.779 4.785 10.872 4.242 10.965 3.592 10.834 2.834 10.479 1.877 10.032 1.254 9.578 .966 9.117 .779 8.799 .756 8.488 .897 8.187 1.018 7.928 1.241 7.765 1.567 7.697 2.007 7.609 3.298 7.798 5.438 8.263 7.578 8.729 9.181 8.822 10.246 8.543 11.307 8.251 12.107 7.528 12.648 6.374 13.236 5.115 13.216 3.788 12.588 2.391 11.96 .995 10.617-.185 8.557-1.149 6.687-2.024 5.029-2.337 3.585-2.089 2.14-1.84 .945-1.144 0 0" fill="#231f20"/>
<path transform="matrix(1,0,0,-1,112.7943,124.173099)" d="M0 0 2.017 .943 1.533 1.977C.993 3.132 .712 4.051 .692 4.735 .671 5.419 .907 6.094 1.399 6.76 1.891 7.426 2.641 7.994 3.649 8.466 4.683 8.95 5.769 9.268 6.905 9.422L7.599 6.658C6.957 6.526 6.369 6.335 5.834 6.085 5.309 5.839 4.989 5.54 4.876 5.188 4.762 4.835 4.869 4.31 5.195 3.612L5.649 2.643 8.363 3.912 9.7 1.056 6.985-.214 12.071-11.085 8.438-12.784 3.353-1.913 1.336-2.857Z" fill="#231f20"/>
<path transform="matrix(1,0,0,-1,134.1128,122.896999)" d="M0 0C-.393-.373-1.043-.903-1.95-1.59-2.858-2.277-3.418-2.797-3.632-3.148-3.949-3.706-3.986-4.244-3.744-4.761-3.506-5.269-3.111-5.62-2.559-5.813-2.006-6.006-1.437-5.966-.851-5.692-.196-5.385 .328-4.878 .721-4.169 1.007-3.636 1.109-3.1 1.025-2.561 .975-2.207 .746-1.594 .339-.724ZM-6.239 .674-9.813-.274C-10.064 1.227-9.886 2.507-9.279 3.568-8.673 4.629-7.477 5.577-5.694 6.412-4.073 7.169-2.777 7.542-1.805 7.529-.833 7.517-.047 7.291 .552 6.852 1.152 6.413 1.82 5.405 2.558 3.828L4.502-.43C5.067-1.637 5.541-2.499 5.926-3.018 6.31-3.537 6.815-4.049 7.44-4.555L3.847-6.236C3.639-6.039 3.355-5.736 2.996-5.326 2.835-5.139 2.725-5.017 2.667-4.96 2.329-5.853 1.877-6.616 1.311-7.248 .746-7.881 .062-8.384-.739-8.759-2.153-9.42-3.446-9.558-4.619-9.172-5.792-8.786-6.653-8.007-7.201-6.835-7.564-6.059-7.702-5.281-7.616-4.5-7.529-3.719-7.228-3.011-6.711-2.375-6.195-1.74-5.364-1.007-4.218-.177-2.67 .936-1.633 1.783-1.107 2.366L-1.276 2.727C-1.602 3.425-2.008 3.843-2.491 3.979-2.975 4.115-3.695 3.959-4.652 3.511-5.298 3.209-5.743 2.846-5.986 2.423-6.229 1.999-6.313 1.416-6.239 .674" fill="#231f20"/>
<path transform="matrix(1,0,0,-1,147.8223,124.5188)" d="M0 0-3.632-1.699-10.054 12.029-6.68 13.607-5.767 11.655C-5.621 12.847-5.386 13.698-5.062 14.206-4.738 14.715-4.283 15.106-3.697 15.38-2.87 15.768-1.966 15.912-.986 15.814L-.629 12.121C-1.426 12.231-2.087 12.163-2.613 11.917-3.122 11.68-3.487 11.338-3.709 10.893-3.931 10.447-3.973 9.811-3.832 8.984-3.692 8.157-3.076 6.575-1.983 4.24Z" fill="#231f20"/>
<path transform="matrix(1,0,0,-1,154.5206,104.6532)" d="M0 0 1.355-2.896-1.127-4.057 1.461-9.589C1.985-10.709 2.314-11.351 2.448-11.514 2.582-11.677 2.761-11.78 2.986-11.822 3.21-11.864 3.443-11.828 3.685-11.716 4.021-11.558 4.453-11.214 4.982-10.683L6.61-13.356C5.935-14.113 5.063-14.742 3.995-15.241 3.34-15.548 2.698-15.714 2.07-15.74 1.441-15.766 .922-15.662 .514-15.428 .105-15.194-.286-14.802-.659-14.252-.934-13.866-1.372-13.031-1.973-11.747L-4.773-5.762-6.44-6.542-7.795-3.646-6.127-2.866-7.403-.139-4.749 3.686-2.482-1.161Z" fill="#231f20"/>
<path transform="matrix(1,0,0,-1,158.2176,96.5587)" d="M0 0 3.259-6.967C3.79-5.049 4.87-3.709 6.499-2.947 7.335-2.556 8.161-2.358 8.979-2.354 9.796-2.35 10.488-2.509 11.054-2.833 11.62-3.156 12.103-3.581 12.502-4.109 12.901-4.636 13.389-5.516 13.965-6.749L17.732-14.802 14.1-16.501 10.708-9.249C10.035-7.81 9.538-6.929 9.219-6.606 8.9-6.282 8.512-6.088 8.056-6.023 7.6-5.958 7.11-6.048 6.584-6.294 5.981-6.577 5.511-6.975 5.174-7.49 4.837-8.004 4.697-8.608 4.753-9.301 4.809-9.995 5.108-10.918 5.648-12.073L8.865-18.95 5.233-20.649-3.632-1.699Z" fill="#231f20"/>
<path transform="matrix(1,0,0,-1,73.3569,178.2125)" d="M0 0 6.967-14.747 2.892-16.672-1.673-7.009C-2.096-7.822-2.542-8.529-3.012-9.13-3.482-9.731-4.115-10.393-4.911-11.116L-6.472-7.812C-5.309-6.723-4.495-5.689-4.029-4.711-3.564-3.732-3.332-2.687-3.333-1.575Z" fill="#ffffff"/>
<path transform="matrix(1,0,0,-1,87.7083,177.5779)" d="M0 0C-.371 .785-.859 1.306-1.465 1.564-2.071 1.822-2.657 1.817-3.224 1.55-3.758 1.297-4.107 .887-4.27 .318-4.432-.251-4.324-.938-3.944-1.742-3.56-2.553-3.085-3.087-2.516-3.342-1.948-3.598-1.39-3.597-.843-3.338-.276-3.07 .098-2.64 .277-2.047 .457-1.454 .364-.771 0 0M-4.362-9.973-.594-7.576C-.224-8.087 .141-8.398 .5-8.511 .86-8.623 1.221-8.594 1.584-8.422 2.23-8.117 2.58-7.552 2.634-6.728 2.671-6.122 2.387-5.01 1.784-3.392 1.536-4.114 1.213-4.71 .814-5.181 .416-5.651-.117-6.044-.783-6.358-2.082-6.972-3.396-7.029-4.725-6.528-6.055-6.027-7.053-5.071-7.72-3.659-8.175-2.697-8.362-1.712-8.28-.706-8.199 .3-7.856 1.194-7.249 1.977-6.643 2.759-5.737 3.436-4.53 4.006-3.079 4.691-1.798 4.992-.686 4.909 .426 4.825 1.501 4.365 2.537 3.528 3.574 2.691 4.513 1.382 5.354-.398 6.591-3.016 6.946-5.193 6.42-6.93 5.893-8.667 4.654-9.996 2.703-10.918 1.549-11.463 .576-11.76-.216-11.807-1.009-11.855-1.747-11.726-2.432-11.421-3.117-11.115-3.76-10.632-4.362-9.973" fill="#ffffff"/>
<path transform="matrix(1,0,0,-1,102.3827,175.3994)" d="M0 0-2.156 4.563-3.877-1.832ZM1.477-3.125-5.862-6.593-7.428-3.279-4.21 8.911-.699 10.57 3.511 1.659 5.331 2.519 6.808-.607 4.988-1.467 6.268-4.177 2.757-5.835Z" fill="#ffffff"/>
<path transform="matrix(1,0,0,-1,114.7293,164.8114)" d="M0 0C-.371 .785-.859 1.306-1.465 1.564-2.071 1.822-2.657 1.817-3.224 1.55-3.758 1.297-4.107 .887-4.27 .318-4.432-.251-4.324-.938-3.944-1.742-3.56-2.553-3.085-3.087-2.516-3.342-1.948-3.598-1.39-3.597-.843-3.338-.276-3.07 .098-2.64 .277-2.047 .457-1.454 .364-.771 0 0M-4.362-9.973-.594-7.576C-.224-8.087 .141-8.398 .5-8.511 .86-8.623 1.221-8.594 1.584-8.422 2.23-8.117 2.58-7.552 2.634-6.728 2.671-6.122 2.387-5.01 1.784-3.392 1.536-4.114 1.213-4.71 .814-5.181 .416-5.651-.117-6.044-.783-6.358-2.082-6.972-3.396-7.029-4.725-6.528-6.055-6.027-7.053-5.071-7.72-3.659-8.175-2.697-8.362-1.712-8.28-.706-8.199 .3-7.856 1.194-7.249 1.977-6.643 2.759-5.737 3.436-4.53 4.006-3.079 4.691-1.798 4.992-.686 4.909 .426 4.825 1.501 4.365 2.537 3.528 3.574 2.691 4.513 1.382 5.354-.398 6.591-3.016 6.946-5.193 6.42-6.93 5.893-8.667 4.654-9.996 2.703-10.918 1.549-11.463 .576-11.76-.216-11.807-1.009-11.855-1.747-11.726-2.432-11.421-3.117-11.115-3.76-10.632-4.362-9.973" fill="#ffffff"/>
<path transform="matrix(1,0,0,-1,137.024,158.609)" d="M0 0C-.447 .741-.919 1.199-1.418 1.375-1.916 1.551-2.442 1.508-2.996 1.246-3.636 .944-4.027 .449-4.169-.24-4.264-.672-4.196-1.216-3.966-1.874ZM5.006 .006-3.065-3.807C-2.687-4.419-2.285-4.818-1.858-5.004-1.254-5.275-.639-5.262-.013-4.966 .383-4.779 .712-4.503 .975-4.137 1.133-3.909 1.263-3.577 1.364-3.142L5.503-1.635C5.395-2.976 5.02-4.079 4.379-4.942 3.739-5.805 2.617-6.615 1.015-7.372-.376-8.03-1.563-8.351-2.547-8.335-3.53-8.32-4.485-8.009-5.413-7.403-6.34-6.797-7.077-5.917-7.622-4.763-8.398-3.121-8.5-1.544-7.928-.031-7.356 1.481-6.143 2.675-4.291 3.55-2.787 4.26-1.493 4.594-.408 4.55 .678 4.506 1.652 4.16 2.515 3.511 3.378 2.862 4.137 1.846 4.791 .461Z" fill="#ffffff"/>
<path transform="matrix(1,0,0,-1,143.9921,157.9422)" d="M0 0 4.302 2.033 6.209-2.003 1.907-4.035Z" fill="#ffffff"/>
<path transform="matrix(1,0,0,-1,151.3817,141.65079)" d="M0 0 4.683 2.213 12.877-6.68 11.168 5.277 15.716 7.425 17.183-9.618 12.327-11.912Z" fill="#ffffff"/>
<path transform="matrix(1,0,0,-1,170.6571,145.3438)" d="M0 0 4.302 2.033 6.209-2.003 1.907-4.035Z" fill="#ffffff"/>
</g>
</g>
</g>
</svg>
