<svg version="1.0" xmlns="http://www.w3.org/2000/svg"
 width="1172" height="1306" viewBox="0 0 1172 1306">
<title>TSV Hainsfarth 1949 e.V.</title>
<!-- Blue layer -->
<g transform="translate(0.000000,1306.000000) scale(0.100000,-0.100000)"
fill="#007cc3" stroke="none">
<path d="M1782 12143 c-269 -542 -473 -1061 -636 -1623 -39 -135 -116 -429
-116 -444 0 -3 37 -30 83 -60 448 -297 764 -738 893 -1246 51 -204 72 -454 55
-660 -58 -680 -418 -1301 -966 -1663 -74 -49 -269 -153 -316 -169 -22 -7 239
-644 263 -642 16 2 9609 4493 9622 4505 11 10 -30 174 -115 459 -130 439 -293
868 -491 1295 -86 186 -239 485 -247 485 -4 0 -141 -31 -306 -70 -1918 -444
-3579 -551 -5345 -344 -659 77 -1379 207 -2093 379 -81 19 -152 35 -157 35 -5
0 -63 -107 -128 -237z m2060 -640 c26 -54 27 -94 13 -409 l-8 -182 129 -7
c157 -10 920 1 1207 16 115 6 211 8 214 6 3 -3 0 -21 -5 -39 -6 -18 -18 -58
-26 -89 l-16 -56 -129 -5 -129 -6 -62 -47 c-191 -147 -316 -318 -361 -493 -63
-248 47 -516 330 -801 149 -150 177 -170 272 -191 44 -10 82 -20 84 -22 2 -2
5 -41 6 -88 l2 -85 -119 -5 -119 -5 39 -17 c21 -10 40 -18 43 -18 7 0 163 -91
163 -96 0 -2 -17 -12 -37 -23 -21 -11 -33 -20 -27 -21 5 0 19 -7 30 -14 18
-14 15 -19 -66 -100 l-85 -86 36 0 c36 0 36 -1 43 -46 3 -26 6 -134 6 -240 l0
-194 -116 0 -116 0 6 33 c4 17 10 90 13 161 l6 129 -86 -89 c-48 -49 -87 -91
-87 -93 0 -3 12 -17 26 -32 l25 -26 -49 -59 c-102 -123 -232 -223 -370 -286
l-67 -31 -380 17 c-209 9 -400 22 -425 27 -63 15 -133 52 -219 116 -40 30 -88
59 -106 64 -50 14 -174 99 -255 175 -60 57 -83 72 -140 90 -89 28 -143 60
-215 128 -49 46 -69 57 -128 72 l-69 18 -35 70 c-25 49 -31 71 -23 76 7 4 42
10 80 14 180 16 458 76 672 145 82 26 159 43 231 51 60 6 138 21 175 33 l67
22 -598 3 c-329 1 -597 5 -595 10 2 4 19 34 38 68 l34 61 98 32 c54 18 98 36
98 40 0 5 -18 46 -39 92 -216 462 -217 937 -5 1361 l44 88 -51 25 c-68 35
-120 84 -153 145 l-28 51 164 -6 c252 -9 951 -26 953 -23 1 2 5 54 7 116 4 79
2 112 -6 112 -6 0 -171 -24 -366 -54 l-355 -53 -194 13 c-107 7 -204 15 -216
18 -11 3 -57 39 -100 79 l-79 74 44 32 c24 17 53 33 64 36 12 2 143 15 291 29
149 14 401 43 560 65 160 21 318 42 353 46 l64 7 -7 49 c-4 26 -4 53 0 59 3 5
30 10 60 10 l53 0 24 -47z"/>
<path d="M3503 10774 c-83 -180 -133 -438 -133 -684 l0 -87 -46 -7 c-26 -3
-195 -6 -375 -6 l-329 0 0 -78 c0 -43 2 -81 4 -83 2 -2 148 1 323 8 175 6 343
12 374 12 l57 1 7 -87 c10 -132 41 -336 82 -545 l36 -188 254 0 c201 0 253 3
247 13 -5 6 -25 34 -47 61 -132 169 -267 486 -302 712 l-6 41 108 6 c59 4 273
12 476 18 202 7 367 17 367 21 0 5 -5 18 -11 29 -12 23 -15 65 -6 94 7 20 5
20 -241 8 -371 -18 -697 -31 -701 -27 -9 8 1 203 14 281 35 202 109 363 232
511 l45 52 -197 0 -196 0 -36 -76z"/>
<path d="M6615 4746 c-2117 -992 -3851 -1808 -3853 -1814 -5 -16 588 -606 753
-749 668 -580 1298 -1004 2130 -1434 l214 -110 218 112 c1619 832 2840 1913
3785 3354 227 345 399 648 617 1085 213 428 490 1079 463 1088 -76 25 -310
158 -409 233 -29 21 -56 39 -60 38 -4 0 -1740 -812 -3858 -1803z m2865 241 c0
-134 3 -365 7 -513 l6 -270 -109 -50 -109 -51 -26 36 c-15 20 -140 191 -278
381 l-252 344 107 54 c58 29 110 50 114 45 4 -4 85 -129 180 -276 95 -147 175
-266 177 -263 2 2 -5 143 -17 312 -11 170 -21 327 -23 349 l-2 40 105 52 c58
28 108 52 113 52 4 1 7 -109 7 -242z m273 -537 c14 -57 25 -105 24 -105 -1 0
-46 -22 -101 -48 -54 -27 -102 -45 -106 -40 -8 9 -50 174 -50 198 0 16 191
118 201 107 3 -4 18 -54 32 -112z m-1178 -44 c24 -14 57 -43 74 -65 30 -38 91
-156 91 -177 0 -5 -94 -57 -210 -114 -115 -56 -210 -105 -210 -108 0 -2 9 -20
20 -38 28 -44 76 -60 122 -41 40 17 78 61 78 89 0 15 25 32 110 71 60 29 110
58 110 65 0 7 46 35 102 63 l103 50 28 -112 c15 -61 26 -113 25 -114 -14 -11
-202 -94 -206 -91 -2 3 -14 44 -26 93 l-22 88 -6 -56 c-16 -153 -150 -286
-322 -320 -142 -29 -276 58 -344 223 -21 52 -26 79 -26 153 0 81 3 97 32 156
90 186 321 276 477 185z m-1357 -410 c153 -80 263 -334 250 -578 -10 -183
-132 -325 -309 -358 -98 -19 -201 28 -244 110 l-14 27 88 42 88 43 26 -26 c30
-30 64 -33 107 -11 47 24 63 67 58 150 -7 99 -11 104 -63 56 -59 -54 -99 -73
-171 -79 -77 -6 -120 8 -176 57 -92 81 -133 240 -94 359 29 87 116 169 224
213 59 24 180 21 230 -5z m-688 -507 c31 -123 60 -236 63 -252 l7 -27 41 21
c23 11 42 19 43 17 5 -6 36 -137 36 -152 0 -9 -18 -25 -39 -36 l-39 -19 24
-93 c13 -51 24 -97 24 -101 0 -8 -160 -87 -177 -87 -5 0 -19 43 -32 95 -13 52
-24 95 -26 95 -1 0 -86 -40 -188 -89 l-185 -89 -27 108 -27 108 102 312 101
312 112 54 c62 29 116 52 122 51 5 -2 34 -104 65 -228z m-888 -272 c188 -110
301 -478 216 -704 -41 -110 -180 -215 -304 -229 -67 -8 -140 16 -181 59 -30
31 -58 76 -51 82 2 1 41 21 86 44 l84 42 23 -25 c35 -38 93 -36 133 3 36 36
45 85 32 167 -6 32 -10 61 -10 63 0 2 -21 -15 -46 -39 -127 -117 -291 -110
-386 16 -52 67 -73 133 -72 224 0 61 5 85 27 127 44 85 131 157 230 189 64 21
166 12 219 -19z m-752 -737 c61 -243 110 -447 110 -454 0 -6 -45 -32 -98 -57
l-98 -46 -79 316 c-43 174 -79 318 -81 319 -1 2 -22 -9 -46 -25 -59 -40 -135
-83 -146 -83 -5 0 -15 27 -22 59 l-12 60 80 78 c71 69 82 85 98 139 l18 62 81
40 c44 22 81 39 83 37 2 -1 52 -202 112 -445z"/>
<path d="M8323 4260 c-18 -10 -39 -33 -48 -49 -16 -31 -20 -98 -7 -117 9 -15
222 83 222 102 0 7 -14 29 -31 49 -25 28 -38 35 -68 35 -20 0 -50 -9 -68 -20z"/>
<path d="M7009 3833 c-61 -38 -77 -126 -37 -209 22 -47 67 -84 103 -84 23 0
84 35 102 59 35 48 17 164 -36 220 -23 24 -37 31 -68 31 -21 0 -50 -8 -64 -17z"/>
<path d="M6320 3469 c0 -3 -29 -104 -65 -224 -36 -121 -65 -223 -65 -227 0 -5
50 17 110 47 61 30 110 60 110 66 0 15 -81 333 -86 338 -2 2 -4 2 -4 0z"/>
<path d="M5435 3066 c-61 -26 -85 -100 -60 -183 34 -115 124 -146 202 -68 29
29 33 39 33 87 0 63 -27 126 -65 156 -31 25 -66 27 -110 8z"/>
</g>
<!-- Dark layer -->
<g transform="translate(0.000000,1306.000000) scale(0.100000,-0.100000)"
fill="#1a1a1a" stroke="none">
<path d="M1523 12897 c-537 -954 -904 -1917 -1118 -2938 -20 -96 -38 -181 -41
-190 -3 -11 12 -22 53 -39 480 -194 852 -566 992 -990 44 -137 62 -241 68
-408 10 -290 -42 -534 -170 -788 -246 -489 -688 -794 -1200 -830 -54 -4 -100
-10 -102 -15 -5 -7 104 -328 194 -570 611 -1651 1523 -3065 2673 -4147 792
-745 1604 -1303 2646 -1819 250 -124 338 -163 355 -158 50 15 675 331 857 433
1066 598 1908 1266 2687 2129 870 965 1599 2198 2104 3562 90 242 199 563 194
570 -2 5 -48 11 -102 15 -512 36 -954 341 -1200 830 -82 164 -139 348 -164
533 -17 130 -6 390 21 508 91 401 320 722 686 962 96 63 249 144 346 183 48
20 57 27 53 44 -3 12 -21 97 -41 191 -218 1029 -587 1995 -1121 2940 -47 83
-86 151 -88 153 -1 1 -144 -33 -316 -77 -1122 -286 -2046 -436 -3159 -513
-249 -17 -1291 -17 -1540 0 -1113 77 -2037 227 -3158 512 -171 44 -313 80
-315 80 -1 0 -43 -73 -94 -163z m380 28 c1876 -482 3553 -633 5257 -474 841
78 1744 240 2659 475 139 36 254 64 256 62 7 -10 153 -273 208 -373 373 -691
688 -1506 887 -2296 41 -161 121 -522 117 -525 -1 0 -64 -31 -140 -69 -622
-305 -968 -824 -967 -1451 1 -420 154 -822 431 -1129 252 -280 562 -441 934
-485 49 -6 91 -12 92 -14 7 -7 -183 -531 -285 -786 -434 -1081 -965 -2006
-1628 -2834 -827 -1032 -1811 -1856 -3034 -2541 -189 -106 -807 -415 -830
-415 -23 0 -641 309 -830 415 -2182 1221 -3696 2967 -4662 5375 -102 255 -292
779 -285 786 1 2 43 8 92 14 123 14 224 37 325 72 612 216 1040 849 1040 1539
0 632 -343 1148 -967 1454 -76 38 -139 69 -140 69 -4 3 76 364 117 525 176
700 441 1415 763 2058 87 173 327 612 335 613 2 0 117 -29 255 -65z"/>
<path d="M1570 12783 c-307 -543 -594 -1198 -794 -1811 -102 -314 -226 -778
-284 -1067 l-18 -89 131 -66 c515 -258 840 -662 947 -1175 33 -159 33 -449 0
-613 -145 -723 -702 -1270 -1363 -1339 -32 -3 -59 -7 -59 -8 0 -2 27 -79 59
-172 489 -1397 1143 -2576 1980 -3573 771 -918 1668 -1660 2771 -2292 235
-135 890 -468 920 -468 30 0 686 333 924 470 1608 921 2832 2126 3756 3695
379 644 716 1380 991 2168 33 93 59 170 59 172 0 1 -27 5 -59 8 -748 78 -1356
771 -1388 1582 -25 612 278 1140 846 1478 52 31 131 73 176 93 l82 37 -29 136
c-187 888 -517 1798 -937 2591 -82 155 -206 378 -225 407 -1 1 -105 -25 -231
-58 -2606 -669 -4820 -711 -7360 -138 -196 45 -757 183 -788 195 -7 2 -51 -64
-107 -163z m408 -17 c1940 -485 3635 -620 5397 -431 754 81 1543 225 2369 431
143 36 262 61 266 57 19 -21 173 -307 279 -521 277 -554 485 -1084 656 -1673
72 -248 185 -704 185 -748 0 -6 -37 -29 -82 -52 -692 -348 -1076 -1016 -997
-1737 80 -742 587 -1358 1256 -1528 53 -13 106 -24 119 -24 14 0 24 -6 24 -14
0 -15 -68 -211 -137 -391 -719 -1896 -1783 -3398 -3218 -4546 -459 -367 -927
-681 -1465 -981 -213 -119 -747 -388 -770 -388 -23 0 -557 269 -770 388 -538
300 -1006 614 -1465 981 -1435 1148 -2499 2650 -3218 4546 -69 180 -137 376
-137 391 0 8 10 14 24 14 13 0 66 11 119 24 669 170 1176 786 1256 1528 78
713 -299 1378 -979 1727 -55 29 -100 57 -100 63 0 6 12 63 26 127 161 724 413
1457 728 2116 132 277 358 705 372 705 3 0 120 -29 262 -64z"/>
<path d="M3758 11542 l-48 -3 0 -54 c0 -53 0 -54 -32 -59 -206 -30 -788 -101
-990 -121 -241 -23 -260 -26 -298 -51 -22 -15 -40 -32 -40 -38 0 -13 65 -77
126 -124 l40 -31 220 -12 219 -12 352 55 351 54 -1 -118 -2 -118 -105 1 c-58
0 -309 6 -558 12 -297 8 -452 9 -452 2 0 -24 76 -117 123 -149 29 -20 57 -36
62 -36 36 -1 34 -18 -14 -121 -56 -119 -102 -256 -128 -379 -28 -130 -25 -430
5 -566 28 -129 72 -260 132 -395 l47 -106 -98 -32 -98 -32 -36 -58 c-19 -32
-35 -64 -35 -70 0 -8 164 -11 598 -12 544 -1 594 -2 562 -16 -49 -21 -151 -42
-240 -49 -43 -3 -120 -20 -180 -40 -216 -69 -483 -127 -743 -159 l-47 -6 37
-72 38 -71 70 -19 c60 -16 79 -28 130 -77 66 -62 126 -97 220 -126 47 -15 72
-31 115 -75 82 -83 236 -189 274 -189 9 0 53 -27 98 -61 86 -63 142 -96 193
-111 16 -4 209 -18 428 -29 l399 -21 83 41 c146 70 256 154 352 270 l53 65
-30 31 -29 30 50 44 c28 24 69 66 91 95 l41 51 -6 -150 c-3 -82 -9 -159 -13
-169 -7 -18 -3 -19 106 -12 63 3 115 8 116 9 1 1 -1 107 -4 235 l-5 232 -41 0
-41 0 90 90 c49 50 85 90 79 90 -6 0 -19 6 -29 14 -19 13 -18 15 17 32 l37 17
-47 30 c-40 26 -105 58 -187 93 -13 6 20 11 100 14 l120 5 3 86 3 86 -88 19
c-86 19 -90 20 -173 95 -289 258 -434 496 -447 730 -8 146 21 252 106 381 64
98 127 166 240 260 l94 78 127 0 127 0 26 92 c15 50 25 93 23 95 -1 2 -86 -2
-187 -8 -101 -7 -449 -12 -774 -13 l-590 -1 1 100 c1 55 7 170 14 255 12 150
12 157 -9 212 -12 31 -27 60 -34 65 -7 4 -33 7 -59 5z m48 -88 c16 -41 16 -59
5 -207 -6 -89 -14 -199 -17 -244 l-6 -83 -44 0 -44 0 0 78 c0 43 5 104 11 136
6 32 8 60 5 63 -2 3 -179 -22 -393 -54 l-388 -59 -185 12 c-102 7 -194 13
-206 13 -11 1 -45 23 -75 50 -43 40 -52 52 -42 62 9 8 123 24 335 45 178 18
436 48 573 68 138 19 287 38 333 42 l82 7 0 52 c0 28 3 55 7 58 16 17 33 4 49
-39z m-638 -580 c232 -5 322 -10 318 -18 -113 -261 -146 -401 -162 -684 l-7
-132 -313 -2 c-173 -1 -333 -2 -356 -3 l-42 0 3 50 c9 162 70 369 161 549 l57
113 -66 29 c-64 27 -141 86 -141 106 0 7 40 8 113 4 61 -3 257 -9 435 -12z
m2159 -38 l-10 -43 -60 -7 c-33 -3 -88 -6 -123 -6 -61 0 -64 -1 -136 -58 -238
-190 -355 -369 -393 -603 l-6 -37 -142 -6 c-364 -14 -763 -23 -770 -16 -10 9
9 202 28 284 43 185 123 334 246 461 l49 51 467 2 c258 2 533 7 613 11 80 4
168 9 196 9 l51 2 -10 -44z m-1397 6 c0 -4 -16 -24 -36 -43 -19 -18 -57 -68
-83 -109 -103 -160 -158 -342 -168 -554 l-6 -129 204 7 c231 7 569 23 675 31
l71 6 -5 -49 c-3 -33 1 -59 12 -80 l17 -32 -48 0 c-27 0 -219 -7 -428 -15
-209 -8 -404 -15 -432 -15 l-52 0 5 -32 c47 -264 156 -527 300 -718 30 -40 54
-74 52 -75 -6 -6 -496 -10 -502 -5 -6 6 -45 189 -70 330 -21 114 -56 391 -56
440 0 21 -4 41 -8 44 -4 2 -174 -2 -377 -9 -203 -8 -370 -13 -371 -12 -1 1 -5
39 -8 85 l-7 82 178 0 c98 0 269 3 381 7 l202 6 0 104 c0 117 14 262 36 373
20 99 79 274 110 328 l25 42 194 0 c107 0 195 -4 195 -8z m710 -1003 c0 -24
81 -183 129 -251 66 -95 194 -237 304 -335 82 -73 92 -79 160 -94 l72 -15 6
-43 c3 -23 2 -44 -2 -46 -8 -6 -495 -21 -919 -30 l-305 -7 -47 61 c-76 96
-156 224 -203 324 -52 112 -115 308 -118 368 l-2 44 415 16 c228 9 436 17 463
17 28 1 47 -2 47 -9z m-1306 -61 c3 -13 10 -72 16 -133 12 -121 58 -400 89
-538 10 -48 15 -89 10 -92 -9 -6 -869 6 -869 12 0 26 33 46 132 79 62 20 115
38 117 40 2 2 -21 57 -52 121 -31 65 -72 165 -91 223 -35 106 -74 275 -66 283
5 5 432 22 622 25 83 2 88 1 92 -20z m648 -840 c-14 -28 -17 -62 -15 -218 1
-102 5 -200 8 -217 6 -32 5 -33 -28 -33 -30 0 -34 3 -30 23 3 13 -2 48 -11 77
-11 36 -16 93 -16 172 0 94 -4 129 -20 170 -11 29 -20 54 -20 56 0 1 33 2 74
2 l74 0 -16 -32z m1102 11 c65 -17 177 -71 173 -83 -10 -29 -276 -57 -432 -45
-49 4 -247 13 -438 19 -337 12 -348 12 -362 -6 -19 -26 -28 -13 -19 30 14 76
2 73 359 86 176 6 352 12 390 14 104 5 285 -4 329 -15z m-1262 -46 l21 -47
-22 -41 c-20 -37 -55 -83 -126 -162 -29 -33 -35 -35 -280 -84 -227 -46 -258
-51 -340 -45 -49 3 -103 10 -120 15 -30 9 -29 9 47 45 189 89 489 155 705 156
50 0 53 1 83 45 36 52 34 53 -67 29 -37 -9 -131 -27 -207 -40 -143 -25 -506
-109 -535 -124 -9 -4 -42 -15 -73 -24 -31 -9 -79 -31 -106 -50 l-48 -32 -99
26 c-85 23 -102 31 -117 55 -9 16 -16 30 -15 32 2 1 52 9 112 18 216 32 448
86 633 149 38 13 106 27 153 31 95 8 242 43 309 73 25 11 51 21 58 21 7 1 22
-20 34 -46z m1438 -120 c0 -3 -34 -42 -76 -89 -71 -77 -83 -86 -158 -115 -110
-42 -265 -116 -378 -179 -81 -46 -106 -55 -198 -71 -58 -9 -148 -20 -200 -23
-128 -9 -544 10 -650 29 -50 9 -195 19 -355 24 -309 9 -338 16 -448 100 -67
52 -83 75 -45 66 46 -10 476 -64 638 -79 420 -40 806 -28 1065 34 184 44 402
128 630 242 130 65 175 81 175 61z m-542 -22 c148 -23 220 -39 227 -51 3 -5
-23 -18 -57 -29 -59 -19 -81 -20 -356 -16 -337 5 -355 8 -383 70 -18 40 -18
40 4 47 44 15 427 0 565 -21z m362 14 c0 -2 -14 -12 -31 -20 -26 -14 -35 -14
-67 -3 l-37 13 60 6 c33 3 63 6 68 7 4 1 7 0 7 -3z m-980 -35 c0 -12 7 -34 15
-50 15 -29 65 -176 65 -191 0 -5 -35 -9 -79 -9 l-78 0 -6 83 c-4 45 -7 106 -7
135 l0 52 45 0 c39 0 45 -3 45 -20z m-260 -47 c0 -32 7 -91 17 -130 l17 -73
-24 -25 c-31 -34 -44 -32 -70 11 -31 49 -39 148 -15 195 19 38 54 79 67 79 4
0 8 -26 8 -57z m858 -90 c-2 -9 -14 -20 -28 -24 -267 -75 -402 -109 -410 -104
-19 11 -50 84 -50 115 l0 30 246 0 c224 0 245 -1 242 -17z m-992 -50 c3 -16
10 -40 14 -55 11 -33 19 -33 -185 -18 -231 17 -233 18 -50 56 88 19 164 36
170 38 28 12 45 4 51 -21z m1509 -145 c10 -223 13 -212 -57 -216 l-58 -3 7
163 c6 171 11 189 58 209 42 17 43 14 50 -153z m-210 92 c10 -15 -57 -93 -134
-157 -85 -70 -260 -156 -371 -182 -47 -11 -155 -30 -240 -42 -142 -20 -181
-21 -457 -15 -166 3 -343 9 -393 13 -88 6 -95 8 -164 53 -39 26 -95 69 -125
96 l-55 49 40 5 c79 11 256 -9 379 -42 119 -31 122 -32 320 -29 365 5 677 19
732 34 78 22 151 59 220 111 56 43 200 115 230 116 6 0 15 -5 18 -10z m-145
-265 c10 -12 6 -22 -19 -54 -74 -93 -187 -180 -322 -246 l-76 -38 -399 20
-399 19 -72 38 c-39 21 -79 46 -87 55 -15 17 -9 18 111 31 112 11 152 10 313
-5 l185 -17 155 32 c257 53 412 95 501 138 99 47 93 46 109 27z"/>
<path d="M7123 7875 c-69 -33 -113 -59 -113 -68 0 -9 18 -167 40 -353 22 -185
38 -339 36 -341 -2 -2 -113 113 -246 256 -214 230 -244 259 -263 251 -78 -31
-238 -112 -235 -119 2 -5 162 -174 356 -375 l353 -365 87 41 c48 22 115 53
150 69 51 23 62 32 62 53 0 26 -75 864 -85 954 -4 30 -11 52 -18 51 -7 0 -63
-24 -124 -54z"/>
<path d="M9108 7522 c-53 -26 -99 -50 -103 -54 -7 -6 387 -864 403 -879 9 -8
231 93 232 104 0 5 -38 91 -84 190 -98 212 -100 218 -91 263 7 40 52 74 98 74
46 0 77 -44 172 -247 48 -103 89 -190 91 -192 4 -4 193 80 223 98 12 8 -5 51
-90 233 -112 241 -149 293 -224 318 -110 36 -270 -34 -326 -142 -11 -21 -21
-38 -23 -38 -1 0 -36 72 -76 160 -51 109 -79 160 -89 159 -9 0 -60 -22 -113
-47z"/>
<path d="M8571 7120 l-94 -102 22 -45 c12 -25 21 -47 19 -48 -2 -1 -27 -15
-56 -29 -29 -15 -52 -31 -50 -35 27 -69 66 -141 76 -141 7 0 35 11 62 25 28
14 50 21 50 15 0 -5 38 -88 84 -184 99 -204 115 -220 219 -219 53 1 74 8 165
54 57 28 106 57 108 64 6 14 -55 145 -67 145 -6 0 -27 -9 -49 -20 -48 -25 -82
-25 -102 -2 -17 19 -128 252 -128 269 0 6 31 24 69 41 l70 31 -34 73 c-18 40
-38 74 -43 76 -6 2 -39 -10 -75 -26 l-65 -30 -44 95 -43 95 -94 -102z"/>
<path d="M5413 7085 c-128 -35 -276 -127 -331 -207 -63 -92 -77 -199 -36 -280
74 -148 169 -173 464 -124 166 28 196 23 220 -33 19 -48 -5 -92 -72 -131 -82
-47 -156 -35 -195 30 -9 17 -20 29 -24 28 -88 -37 -239 -114 -239 -123 0 -21
58 -103 92 -128 70 -54 179 -71 286 -46 70 17 219 90 287 141 157 117 190 285
84 433 -72 100 -171 116 -430 68 -164 -30 -197 -26 -219 26 -22 54 9 105 84
136 51 21 84 13 121 -31 l31 -35 119 56 c65 31 121 58 124 60 18 19 -77 131
-134 156 -49 22 -156 24 -232 4z"/>
<path d="M8215 6783 c-64 -34 -114 -102 -116 -160 -1 -25 -3 -23 -24 20 -12
26 -25 50 -28 53 -2 3 -57 -20 -121 -50 l-116 -55 54 -103 c29 -57 96 -194
147 -305 51 -112 97 -203 102 -203 11 0 208 90 221 101 4 4 -23 76 -62 161
-38 84 -73 165 -76 180 -13 56 28 114 107 154 26 13 47 28 47 32 1 19 -84 192
-94 192 -6 -1 -24 -8 -41 -17z"/>
<path d="M3900 6374 c-206 -97 -379 -179 -384 -184 -5 -5 7 -44 30 -95 33 -72
42 -85 59 -82 11 3 72 29 135 59 l115 55 160 -344 c88 -190 165 -347 170 -349
14 -6 245 103 245 116 0 5 -70 159 -156 342 -86 183 -158 338 -160 343 -3 6
54 38 126 70 71 33 130 63 130 67 0 16 -79 178 -87 178 -4 -1 -177 -80 -383
-176z"/>
<path d="M7370 6394 c-83 -22 -210 -89 -258 -136 -48 -46 -66 -76 -77 -127 -7
-34 11 -121 25 -121 4 0 55 22 113 49 l105 49 -5 42 c-5 33 -2 45 17 65 26 27
67 33 92 13 17 -14 48 -59 48 -69 0 -4 -37 -25 -83 -48 -98 -49 -192 -129
-218 -186 -42 -91 -8 -219 73 -273 111 -73 307 -12 369 115 20 41 24 44 33 29
28 -46 26 -47 135 5 58 27 107 51 109 53 2 3 -26 64 -61 138 -36 73 -83 172
-105 220 -47 102 -105 170 -160 186 -50 15 -84 14 -152 -4z m137 -401 c26 -63
21 -112 -16 -145 -49 -44 -110 -36 -139 19 -18 33 -15 49 20 88 28 32 89 73
111 75 4 0 15 -17 24 -37z"/>
<path d="M6538 6336 c-156 -68 -227 -148 -215 -241 4 -23 18 -69 32 -100 14
-32 25 -61 25 -65 0 -4 -25 -18 -55 -30 -30 -12 -55 -24 -55 -27 0 -2 16 -38
35 -79 38 -83 37 -83 115 -44 l35 18 104 -225 c58 -124 110 -227 116 -229 11
-5 225 92 225 101 0 3 -47 107 -105 231 -58 125 -104 228 -103 229 2 2 31 17
66 34 34 17 62 36 62 41 0 6 -16 42 -35 80 l-35 70 -61 -31 c-34 -17 -67 -28
-73 -26 -7 3 -18 24 -25 47 -16 55 1 82 66 106 26 10 49 18 51 20 7 4 -73 154
-83 154 -5 0 -45 -15 -87 -34z"/>
<path d="M5870 5751 c-224 -72 -336 -222 -275 -369 48 -114 134 -138 364 -104
150 23 171 20 171 -27 0 -76 -171 -133 -196 -66 -4 8 -11 15 -18 15 -22 0
-216 -94 -216 -105 0 -16 70 -80 110 -101 57 -30 176 -24 271 13 232 90 329
247 249 403 -53 102 -118 117 -360 81 -109 -17 -128 -17 -147 -5 -40 25 -30
58 27 93 43 26 70 27 101 2 25 -19 25 -19 127 27 56 26 102 52 102 58 0 22
-44 67 -84 85 -53 24 -153 24 -226 0z"/>
<path d="M5073 5331 c-87 -32 -140 -78 -169 -146 l-17 -40 -15 33 c-9 17 -19
32 -22 32 -4 0 -59 -25 -123 -55 l-117 -55 34 -57 c18 -32 84 -168 147 -302
62 -134 118 -245 124 -247 15 -6 225 94 225 106 0 6 -32 79 -71 163 -98 208
-109 235 -109 262 0 58 47 105 104 105 43 0 79 -52 170 -246 48 -104 91 -192
94 -196 9 -9 232 93 232 106 0 21 -195 426 -225 467 -58 80 -161 108 -262 70z"/>
<path d="M4120 5196 c-63 -29 -116 -58 -117 -63 -6 -16 67 -163 80 -163 19 1
221 98 225 108 1 5 -14 46 -35 91 l-38 81 -115 -54z"/>
<path d="M4233 4925 l-112 -53 85 -184 c48 -100 112 -239 144 -308 32 -69 61
-125 65 -124 22 2 225 101 225 110 0 16 -278 608 -287 611 -5 1 -58 -22 -120
-52z"/>
<path d="M3713 4678 c-134 -20 -310 -124 -353 -208 -28 -56 -26 -180 4 -180 6
0 57 21 113 46 l102 47 -6 43 c-5 37 -2 46 20 68 41 41 93 31 122 -24 21 -42
20 -45 -28 -64 -64 -24 -190 -110 -221 -151 -44 -57 -59 -103 -53 -163 21
-201 248 -262 412 -111 28 26 49 56 57 81 l12 40 18 -37 c11 -20 25 -34 31
-32 7 3 58 26 115 53 l102 47 -21 36 c-12 20 -61 121 -110 226 -85 181 -124
240 -174 268 -33 17 -87 23 -142 15z m108 -442 c19 -70 -13 -125 -82 -141 -38
-9 -89 36 -89 79 0 43 22 71 83 106 48 28 53 29 65 13 7 -10 17 -35 23 -57z"/>
<path d="M2741 4554 c-72 -35 -111 -59 -108 -67 3 -6 38 -81 77 -165 42 -88
69 -157 64 -162 -5 -5 -67 -36 -138 -69 l-129 -60 -78 167 c-43 92 -81 167
-85 166 -3 0 -59 -25 -125 -55 -86 -39 -119 -58 -116 -69 9 -35 403 -870 410
-870 10 0 229 100 240 110 4 3 -29 84 -73 179 -45 95 -80 175 -78 177 2 2 65
32 139 67 l136 65 78 -170 c44 -94 84 -172 91 -175 6 -2 64 21 129 51 98 46
116 59 111 73 -4 10 -96 208 -204 441 -138 296 -201 422 -212 421 -8 0 -66
-25 -129 -55z"/>
</g>
</svg>